<?xml version="1.0" ?><svg data-name="Layer 1" height="32" id="Layer_1" viewBox="0 0 32 32" width="32" xmlns="http://www.w3.org/2000/svg"><defs><style>
      .cls-1 {
        fill: none;
      }
    </style></defs><rect height="2" width="7" x="20" y="10"/><rect height="2" width="10" x="20" y="16"/><rect height="2" width="7" x="20" y="22"/><path d="M10,20.1839V7H8V20.1839a3,3,0,1,0,2,0Z" transform="translate(0 0)"/><path d="M30,4H12.9744A4.9829,4.9829,0,0,0,4,7V18.1108a7,7,0,1,0,10,0V7a5.0019,5.0019,0,0,0-.1011-1H30ZM9,28a4.9933,4.9933,0,0,1-3.332-8.7183L6,18.9834V7a3,3,0,0,1,6,0V18.9834l.332.2983A4.9933,4.9933,0,0,1,9,28Z" transform="translate(0 0)"/><rect class="cls-1" data-name="&lt;Transparent Rectangle&gt;" height="32" id="_Transparent_Rectangle_" width="32"/></svg>